{
    "asset" : {
        "generator" : "Khronos glTF Blender I/O v3.4.50",
        "version" : "2.0"
    },
    "extensionsUsed" : [
        "KHR_materials_specular",
        "KHR_materials_ior"
    ],
    "scene" : 0,
    "scenes" : [
        {
            "name" : "Scene",
            "nodes" : [
                0
            ]
        },
        {
            "name" : "Scene.001"
        }
    ],
    "nodes" : [
        {
            "mesh" : 0,
            "name" : "1st Layer",
            "scale" : [
                0.20000000298023224,
                0.20000000298023224,
                0.20000000298023224
            ],
            "translation" : [
                -0.08592100441455841,
                0.009999999776482582,
                0.11999999731779099
            ]
        }
    ],
    "animations" : [
        {
            "channels" : [
                {
                    "sampler" : 0,
                    "target" : {
                        "node" : 0,
                        "path" : "translation"
                    }
                },
                {
                    "sampler" : 1,
                    "target" : {
                        "node" : 0,
                        "path" : "rotation"
                    }
                },
                {
                    "sampler" : 2,
                    "target" : {
                        "node" : 0,
                        "path" : "scale"
                    }
                }
            ],
            "name" : "1st Layer",
            "samplers" : [
                {
                    "input" : 5,
                    "interpolation" : "LINEAR",
                    "output" : 6
                },
                {
                    "input" : 5,
                    "interpolation" : "LINEAR",
                    "output" : 7
                },
                {
                    "input" : 5,
                    "interpolation" : "LINEAR",
                    "output" : 8
                }
            ]
        }
    ],
    "materials" : [
        {
            "alphaCutoff" : 0,
            "alphaMode" : "MASK",
            "doubleSided" : true,
            "extensions" : {
                "KHR_materials_specular" : {
                    "specularColorFactor" : [
                        0.6637639493322205,
                        0.6637639493322205,
                        0.6637639493322205
                    ]
                },
                "KHR_materials_ior" : {
                    "ior" : 1.4500000476837158
                }
            },
            "name" : "Skin.001",
            "pbrMetallicRoughness" : {
                "baseColorTexture" : {
                    "index" : 0
                },
                "metallicFactor" : 0,
                "roughnessFactor" : 0.7545454502105713
            }
        }
    ],
    "meshes" : [
        {
            "name" : "Cube.011",
            "primitives" : [
                {
                    "attributes" : {
                        "POSITION" : 0,
                        "TEXCOORD_0" : 1,
                        "TEXCOORD_1" : 2,
                        "NORMAL" : 3
                    },
                    "indices" : 4,
                    "material" : 0
                }
            ]
        }
    ],
    "textures" : [
        {
            "sampler" : 0,
            "source" : 0
        }
    ],
    "images" : [
        {
            "bufferView" : 5,
            "mimeType" : "image/png",
            "name" : "\u304d\u3093\u3068\u304d\u3000\u30b9\u30ad\u30f3"
        }
    ],
    "accessors" : [
        {
            "bufferView" : 0,
            "componentType" : 5126,
            "count" : 3817,
            "max" : [
                1.242319941520691,
                3.0741937160491943,
                -0.1690061092376709
            ],
            "min" : [
                -0.3576815128326416,
                -0.12580665946006775,
                -0.9690070748329163
            ],
            "type" : "VEC3"
        },
        {
            "bufferView" : 1,
            "componentType" : 5126,
            "count" : 3817,
            "type" : "VEC2"
        },
        {
            "bufferView" : 2,
            "componentType" : 5126,
            "count" : 3817,
            "type" : "VEC2"
        },
        {
            "bufferView" : 3,
            "componentType" : 5126,
            "count" : 3817,
            "type" : "VEC3"
        },
        {
            "bufferView" : 4,
            "componentType" : 5123,
            "count" : 6444,
            "type" : "SCALAR"
        },
        {
            "bufferView" : 6,
            "componentType" : 5126,
            "count" : 41,
            "max" : [
                1.6666666666666667
            ],
            "min" : [
                0
            ],
            "type" : "SCALAR"
        },
        {
            "bufferView" : 7,
            "componentType" : 5126,
            "count" : 41,
            "type" : "VEC3"
        },
        {
            "bufferView" : 8,
            "componentType" : 5126,
            "count" : 41,
            "type" : "VEC4"
        },
        {
            "bufferView" : 9,
            "componentType" : 5126,
            "count" : 41,
            "type" : "VEC3"
        }
    ],
    "bufferViews" : [
        {
            "buffer" : 0,
            "byteLength" : 45804,
            "byteOffset" : 0,
            "target" : 34962
        },
        {
            "buffer" : 0,
            "byteLength" : 30536,
            "byteOffset" : 45804,
            "target" : 34962
        },
        {
            "buffer" : 0,
            "byteLength" : 30536,
            "byteOffset" : 76340,
            "target" : 34962
        },
        {
            "buffer" : 0,
            "byteLength" : 45804,
            "byteOffset" : 106876,
            "target" : 34962
        },
        {
            "buffer" : 0,
            "byteLength" : 12888,
            "byteOffset" : 152680,
            "target" : 34963
        },
        {
            "buffer" : 0,
            "byteLength" : 626,
            "byteOffset" : 165568
        },
        {
            "buffer" : 0,
            "byteLength" : 164,
            "byteOffset" : 166196
        },
        {
            "buffer" : 0,
            "byteLength" : 492,
            "byteOffset" : 166360
        },
        {
            "buffer" : 0,
            "byteLength" : 656,
            "byteOffset" : 166852
        },
        {
            "buffer" : 0,
            "byteLength" : 492,
            "byteOffset" : 167508
        }
    ],
    "samplers" : [
        {
            "magFilter" : 9728,
            "minFilter" : 9984
        }
    ],
    "buffers" : [
        {
            "byteLength" : 168000,
            "uri" : "data:application/octet-stream;base64,"
        }
    ]
}
